<?xml version="1.0" encoding="UTF-8"?>
<svg version="1.1" xmlns="http://www.w3.org/2000/svg" width="79" height="79">
<path d="M0 0 C2.375 1.6875 2.375 1.6875 4 4 C4.50906284 7.35981478 4.21085284 8.68225648 2.3125 11.54296875 C1.549375 12.41566406 0.78625 13.28835937 0 14.1875 C-1.24523437 15.6415625 -1.24523437 15.6415625 -2.515625 17.125 C-3.33546875 18.07375 -4.1553125 19.0225 -5 20 C-6.25871635 21.55548687 -7.50907506 23.11778298 -8.75 24.6875 C-12.45515016 29.33208986 -16.1927391 33.94983929 -19.9375 38.5625 C-20.51790039 39.27817139 -21.09830078 39.99384277 -21.69628906 40.73120117 C-22.23866211 41.39869385 -22.78103516 42.06618652 -23.33984375 42.75390625 C-24.07255493 43.65604858 -24.07255493 43.65604858 -24.82006836 44.57641602 C-26.80206027 46.96768331 -26.80206027 46.96768331 -30.0625 47.5 C-35.79126929 46.77253723 -38.0103325 43.9896675 -42 40 C-43.19333649 38.88590051 -44.38882931 37.77410828 -45.5859375 36.6640625 C-46.8712778 35.44427243 -48.15512106 34.22290301 -49.4375 33 C-50.065354 32.41911621 -50.69320801 31.83823242 -51.34008789 31.23974609 C-54.45377941 28.19818807 -55.86240949 26.53544259 -56.97265625 22.21484375 C-57 19 -57 19 -56 16.5625 C-54 15 -54 15 -50.8125 14.3125 C-45.3859455 15.29105901 -42.78874967 18.15924789 -39 22 C-38.01386719 22.98419922 -38.01386719 22.98419922 -37.0078125 23.98828125 C-35.81043643 25.18814151 -34.6218425 26.39687964 -33.4453125 27.6171875 C-32.02890223 29.10854485 -32.02890223 29.10854485 -30 30 C-29.7328418 29.41895508 -29.46568359 28.83791016 -29.19042969 28.23925781 C-27.97266952 25.94858999 -26.61960758 24.15587793 -24.953125 22.171875 C-24.355 21.45386719 -23.756875 20.73585938 -23.140625 19.99609375 C-22.51671875 19.25488281 -21.8928125 18.51367188 -21.25 17.75 C-17.08752355 12.7850122 -13.03394491 7.8043156 -9.25292969 2.54003906 C-6.67797113 -0.62497236 -3.8553482 -0.38553482 0 0 Z " fill="#FFFFFF" transform="translate(66,16)"/>
</svg>
